# This file uses centimeters as units for non-parametric coordinates.

mtllib rocket.mtl
v -3.017085 0.087128 -0.233585
v -3.017055 -0.096917 -0.233596
v -3.210612 -0.085340 -0.201785
v -3.210642 0.074796 -0.201786
v -3.017160 0.228087 -0.115271
v -3.210716 0.197470 -0.098855
v -3.017244 0.260009 0.065949
v -3.210801 0.225282 0.058851
v -3.017299 0.167996 0.225280
v -3.210856 0.145214 0.197540
v -3.017299 -0.004893 0.288207
v -3.210856 -0.005271 0.252313
v -3.017244 -0.177795 0.225297
v -3.210801 -0.155756 0.197537
v -3.210716 -0.235823 0.058850
v -3.017160 -0.269827 0.065955
v -3.017085 -0.237898 -0.115285
v -3.210642 -0.208010 -0.098853
v -1.957679 0.145990 -0.384572
v -0.708924 0.180617 -0.474141
v -0.708924 -0.184468 -0.474140
v -1.957679 -0.151868 -0.384572
v -1.957679 0.374162 -0.193112
v -0.708924 0.460289 -0.239468
v -1.957679 0.425885 0.100220
v -0.708924 0.523685 0.120071
v -1.957679 0.276955 0.358173
v -0.708924 0.341142 0.436244
v -1.957679 -0.002939 0.460046
v -0.708924 -0.001926 0.561111
v -1.957679 -0.282834 0.358173
v -0.708924 -0.344994 0.436244
v -1.957679 -0.431763 0.100220
v -0.708924 -0.527537 0.120071
v -1.957679 -0.380041 -0.193112
v -0.708924 -0.464140 -0.239468
v 0.539833 0.170528 -0.448043
v 0.539833 -0.174970 -0.448043
v 0.539833 0.435195 -0.225962
v 0.539833 0.495189 0.114286
v 0.539833 0.322441 0.413496
v 0.539831 -0.002222 0.531664
v 0.539830 -0.326882 0.413496
v 0.539833 -0.499630 0.114286
v 0.539833 -0.439636 -0.225962
v 1.788588 0.115722 -0.306279
v 1.788587 -0.123372 -0.306279
v 1.788587 0.298877 -0.152593
v 1.788587 0.340396 0.082868
v 1.788587 0.220849 0.289929
v 1.788587 -0.003826 0.371703
v 1.788587 -0.228499 0.289929
v 1.788587 -0.348046 0.082868
v 1.788587 -0.306528 -0.152593
v 3.139603 -0.001474 -0.000294
v 3.139603 -0.012003 -0.000294
v 3.139603 0.006591 0.006473
v 3.139603 0.008419 0.016841
v 3.139603 0.003155 0.025959
v 3.139603 -0.006739 0.029560
v 3.139603 -0.016631 0.025959
v 3.139603 -0.021895 0.016841
v 3.139603 -0.020068 0.006473
v -3.012878 -0.088747 -0.211149
v -3.012878 0.078945 -0.211149
v -3.012878 0.207403 -0.103359
v -3.012878 0.236523 0.061784
v -3.012878 0.152676 0.207009
v -3.012878 -0.004902 0.264363
v -3.012878 -0.162480 0.207009
v -3.012878 -0.246326 0.061784
v -3.012878 -0.217206 -0.103359
v -3.210643 -0.066061 -0.148820
v -3.210665 0.055519 -0.148821
v -3.210665 -0.159198 -0.070670
v -3.210721 -0.180314 0.049064
v -3.210786 -0.119525 0.154361
v -3.210828 -0.005271 0.195948
v -3.210828 0.108983 0.154363
v -3.210786 0.169775 0.049065
v -3.210721 0.148658 -0.070672
v -2.954441 -0.034754 -0.062801
v -2.954451 0.024307 -0.062802
v -2.954451 -0.079996 -0.024839
v -2.954479 -0.090253 0.033324
v -2.954511 -0.060724 0.084474
v -2.954530 -0.005224 0.104676
v -2.954530 0.050277 0.084475
v -2.954511 0.079808 0.033324
v -2.954479 0.069551 -0.024840
v -2.954488 -0.005223 0.018333
v -3.784389 0.029925 -0.787856
v -3.784389 -0.030052 -0.787856
v -3.771958 -0.030052 -0.605610
v -3.771958 0.029925 -0.605610
v -0.627228 -0.029570 0.014811
v -2.183458 -0.030052 -0.759539
v -2.183458 0.029925 -0.759539
v -0.627228 0.030164 0.015226
v -3.040785 0.029925 -0.417954
v -2.922834 0.030164 0.015226
v -2.922834 -0.029570 0.014811
v -3.040785 -0.030052 -0.417954
v -3.784389 0.695550 0.468922
v -3.784389 0.725539 0.416981
v -3.771958 0.567708 0.325858
v -3.771958 0.537719 0.377799
v -2.183458 0.701015 0.402822
v -2.183458 0.671027 0.454764
v -0.627228 0.000656 0.067170
v -3.040785 0.375205 0.283971
v -2.922834 0.000656 0.067170
v -3.040785 0.405194 0.232030
v -3.784389 -0.725664 0.416981
v -3.784389 -0.695676 0.468922
v -3.771958 -0.537846 0.377799
v -3.771958 -0.567835 0.325858
v -2.183458 -0.671154 0.454764
v -2.183458 -0.701142 0.402822
v -3.040785 -0.405319 0.232030
v -3.040785 -0.375331 0.283971
vt 1.728000 0.077500
vt 1.500000 0.077500
vt 1.500000 0.001300
vt 1.727900 0.001300
vt 1.953100 0.077400
vt 1.952900 0.001300
vt 2.174200 0.077400
vt 2.174000 0.001300
vt 0.391800 0.077400
vt 0.174200 0.077400
vt 0.174000 0.001300
vt 0.391800 0.001200
vt 0.608200 0.077400
vt 0.608200 0.001200
vt 0.825800 0.077400
vt 0.826000 0.001300
vt 1.047100 0.001300
vt 1.046900 0.077400
vt 1.272000 0.077500
vt 1.272100 0.001300
vt 1.728500 0.494100
vt 1.728500 0.985200
vt 1.500000 0.985200
vt 1.500000 0.494100
vt 1.953900 0.494100
vt 1.953900 0.985200
vt 2.174900 0.494100
vt 2.174900 0.985200
vt 0.392100 0.494100
vt 0.392100 0.985200
vt 0.174900 0.985200
vt 0.174900 0.494100
vt 0.607900 0.494100
vt 0.607900 0.985200
vt 0.825100 0.494100
vt 0.825100 0.985200
vt 1.046100 0.494100
vt 1.046100 0.985200
vt 1.271500 0.494100
vt 1.271500 0.985200
vt 1.728500 1.476300
vt 1.500000 1.476300
vt 1.953900 1.476300
vt 2.174900 1.476300
vt 0.392100 1.476300
vt 0.174900 1.476300
vt 0.607900 1.476300
vt 0.825100 1.476300
vt 1.046100 1.476300
vt 1.271500 1.476300
vt 1.728500 1.967400
vt 1.500000 1.967400
vt 1.953900 1.967400
vt 2.174900 1.967400
vt 0.392100 1.967400
vt 0.174900 1.967400
vt 0.607900 1.967400
vt 0.825100 1.967400
vt 1.046100 1.967400
vt 1.271500 1.967400
vt 1.752000 2.498800
vt 1.500000 2.498800
vt 1.986300 2.498800
vt 2.200500 2.498800
vt 0.401600 2.498800
vt 0.200500 2.498800
vt 0.598400 2.498800
vt 0.799500 2.498800
vt 1.013700 2.498800
vt 1.248000 2.498800
vt 2.799500 2.498800
vt 2.401600 2.498800
vt 2.598400 2.498800
vt 3.013700 2.498800
vt 3.248000 2.498800
vt 1.500000 0.079100
vt 1.728500 0.079100
vt 1.953900 0.079100
vt -0.046100 0.494100
vt -0.046100 0.079100
vt 0.174900 0.079100
vt 0.392100 0.079100
vt 0.607900 0.079100
vt 0.825100 0.079100
vt 1.046100 0.079100
vt 1.271500 0.079100
vt -0.046900 0.077400
vt 1.500000 0.001300
vt 1.729700 0.001300
vt 1.270300 0.001300
vt 1.044400 0.001300
vt 0.823700 0.001300
vt 0.607400 0.001300
vt 0.392600 0.001300
vt 0.176300 0.001300
vt -0.047100 0.001300
vt -0.044400 0.001300
vt 1.955600 0.001300
vt 1.500000 0.102100
vt 1.738400 0.102100
vt 1.261600 0.102100
vt 1.031900 0.102100
vt 0.813500 0.102100
vt 0.603500 0.102100
vt 0.396500 0.102100
vt 0.186500 0.102100
vt -0.031900 0.102100
vt 1.968100 0.102100
vt -0.261600 0.102100
vt 0.500000 0.102100
vt 2.500000 0.102100
vt 1.000000 0.000000
vt 1.000000 1.000000
vt 0.000000 1.000000
vt 0.000000 0.000000
vt 0.500000 1.000000
vt 0.500000 0.000000
vt 0.000000 1.000000
vt 0.000000 0.000000
vt 0.000000 1.000000
vt 0.000000 0.000000
vt 0.500000 0.000000
vt 0.500000 1.000000
vt 1.000000 1.000000
vt 0.500000 0.000000
vt 1.000000 0.000000
vt 1.000000 1.000000
vt 0.500000 1.000000
vt 0.500000 0.000000
vt 1.000000 0.000000
vt 0.000000 0.000000
vt 0.000000 1.000000
vt 0.000000 1.000000
vt 0.000000 0.000000
vt 1.000000 0.000000
vt 1.000000 1.000000
vt 1.000000 0.000000
vt 1.000000 1.000000
vt 1.000000 0.000000
vt 1.000000 1.000000
vt 0.000000 1.000000
vt 0.000000 0.000000
vt 0.500000 1.000000
vt 0.000000 1.000000
vt 0.000000 0.000000
vt 0.500000 0.000000
vt 0.000000 1.000000
vt 0.000000 0.000000
vt 0.500000 0.000000
vt 0.500000 1.000000
vt 1.000000 1.000000
vt 0.500000 1.000000
vt 0.500000 0.000000
vt 1.000000 0.000000
vt 1.000000 1.000000
vt 0.500000 1.000000
vt 0.500000 0.000000
vt 1.000000 0.000000
vt 0.000000 0.000000
vt 0.000000 1.000000
vt 1.000000 0.000000
vt 0.000000 0.000000
vt 0.000000 1.000000
vt 1.000000 1.000000
vt 1.000000 0.000000
vt 0.000000 0.000000
vt 1.000000 0.000000
vt 0.000000 1.000000
vt 1.000000 1.000000
vt 1.000000 1.000000
vt 1.000000 0.000000
vt 0.000000 0.000000
vt 0.000000 1.000000
vt 1.000000 1.000000
vt 1.000000 0.000000
vt 1.000000 1.000000
vt 0.000000 1.000000
vt 0.000000 0.000000
vt 0.500000 1.000000
vt 0.000000 1.000000
vt 0.000000 0.000000
vt 0.500000 0.000000
vt 0.000000 1.000000
vt 0.000000 0.000000
vt 0.500000 0.000000
vt 1.000000 1.000000
vt 0.500000 1.000000
vt 0.500000 0.000000
vt 1.000000 0.000000
vt 1.000000 1.000000
vt 0.500000 1.000000
vt 0.500000 0.000000
vt 1.000000 0.000000
vt 0.000000 0.000000
vt 0.000000 1.000000
vt 1.000000 0.000000
vt 0.000000 0.000000
vt 0.000000 1.000000
vt 1.000000 1.000000
vt 1.000000 0.000000
vt 0.000000 0.000000
vt 1.000000 0.000000
vt 0.000000 1.000000
vt 1.000000 1.000000
vt 1.000000 1.000000
vt 1.000000 0.000000
vt 0.000000 0.000000
vt 0.000000 1.000000
vt 1.000000 1.000000
vt 0.500000 0.000000
vt 0.500000 0.000000
vt 0.500000 1.000000
vt 0.500000 1.000000
vt 0.500000 1.000000
vn -0.172648 0.445857 -0.878296
vn -0.172252 -0.336908 -0.925647
vn -0.171870 0.222892 -0.959573
vn -0.172280 -0.336908 -0.925642
vn -0.175920 0.905563 -0.386015
vn -0.174735 0.787117 -0.591536
vn -0.179326 0.941235 0.286213
vn -0.178289 0.982561 0.052793
vn -0.181277 0.536819 0.823993
vn -0.180871 0.718355 0.671753
vn -0.182336 -0.000012 0.983236
vn -0.182369 -0.000043 0.983230
vn -0.179327 -0.537053 0.824267
vn -0.178288 -0.718751 0.672020
vn -0.174732 -0.983199 0.052806
vn -0.175916 -0.941828 0.286381
vn -0.172647 -0.906103 -0.386225
vn -0.171870 -0.787546 -0.591805
vn -0.134848 0.405277 -0.904194
vn -0.034186 0.390182 -0.920103
vn -0.131073 -0.289936 -0.948028
vn -0.026977 -0.341762 -0.939399
vn -0.027564 0.919588 -0.391916
vn -0.127679 0.858564 -0.496554
vn -0.028110 0.956349 0.290872
vn -0.130206 0.976556 0.171417
vn -0.018090 0.585320 0.810601
vn -0.114728 0.638556 0.760975
vn -0.131776 -0.000749 0.991279
vn -0.028658 -0.000165 0.999589
vn -0.130206 -0.637902 0.759031
vn -0.028388 -0.642656 0.765629
vn -0.127679 -0.976877 0.171494
vn -0.027849 -0.984454 0.173423
vn -0.125375 -0.858842 -0.496660
vn -0.027291 -0.865627 -0.499946
vn 0.071822 0.340763 -0.937402
vn 0.078071 -0.389329 -0.917784
vn 0.073182 0.863493 -0.499023
vn 0.074636 0.982136 0.172737
vn 0.075504 0.641282 0.763581
vn 0.064920 0.072640 0.995243
vn 0.074168 -0.544361 0.835566
vn 0.072734 -0.954197 0.290202
vn 0.071355 -0.917591 -0.391070
vn 0.176976 0.222721 -0.958684
vn 0.188459 -0.401517 -0.896252
vn 0.179575 0.786445 -0.590980
vn 0.182818 0.981728 0.052793
vn 0.185186 0.717761 0.671211
vn 0.178087 0.050471 0.982720
vn 0.184729 -0.632717 0.752027
vn 0.181552 -0.968660 0.169518
vn 0.178692 -0.851495 -0.492977
vn 0.234494 0.439995 -0.866843
vn 0.232697 -0.220132 -0.947309
vn 0.238138 0.893425 -0.380896
vn 0.241909 0.928341 0.282246
vn 0.244055 0.529389 0.812517
vn 0.243583 -0.116876 0.962812
vn 0.240700 -0.709000 0.662859
vn 0.236753 -0.970171 0.052121
vn 0.233594 -0.777333 -0.584113
vn 1.000000 0.000000 0.000000
vn 1.000000 0.000000 -0.000002
vn 1.000000 0.000000 -0.000016
vn 1.000000 0.000000 -0.000045
vn 1.000000 0.000000 0.000000
vn 1.000000 0.000000 0.000000
vn 1.000000 0.000000 0.000000
vn 1.000000 0.000000 -0.000051
vn 1.000000 0.000000 -0.000127
vn -0.172283 -0.336906 -0.925642
vn -0.171870 0.222928 -0.959565
vn -0.174710 0.787148 -0.591502
vn -0.178253 0.982566 0.052827
vn -0.182338 0.632041 0.753178
vn -0.180840 -0.118488 0.976349
vn -0.178252 -0.718731 0.672050
vn -0.174710 -0.983200 0.052853
vn -0.171870 -0.787566 -0.591777
vn 0.984758 -0.078887 -0.155013
vn 0.984767 -0.039267 -0.169390
vn 0.984692 0.039602 -0.169745
vn 0.984434 0.079947 -0.156517
vn 0.984418 -0.161917 -0.068583
vn 0.984689 -0.139546 -0.104477
vn 0.983836 -0.171194 0.052524
vn 0.984243 -0.176537 0.010036
vn 0.983275 -0.099178 0.152752
vn 0.983633 -0.131244 0.123455
vn 0.983002 0.022105 0.182259
vn 0.983139 -0.021752 0.181561
vn 0.983152 0.133307 0.125067
vn 0.983000 0.100135 0.153897
vn 0.983650 0.179806 0.010121
vn 0.983284 0.174072 0.053394
vn 0.984257 0.141536 -0.105859
vn 0.983853 0.164868 -0.069654
vn -1.000000 -0.000185 -0.000508
vn -1.000000 -0.000184 -0.000506
vn -1.000000 -0.000182 -0.000507
vn -1.000000 -0.000183 -0.000500
vn -1.000000 -0.000182 -0.000504
vn -1.000000 -0.000186 -0.000505
vn -1.000000 -0.000177 -0.000510
vn -1.000000 -0.000180 -0.000505
vn -1.000000 -0.000181 -0.000512
vn -1.000000 -0.000179 -0.000516
vn -1.000000 -0.000182 -0.000497
vn -1.000000 -0.000183 -0.000506
vn -1.000000 -0.000183 -0.000504
vn -1.000000 -0.000178 -0.000500
vn -1.000000 -0.000195 -0.000507
vn -1.000000 -0.000188 -0.000506
vn -1.000000 -0.000188 -0.000503
vn -1.000000 -0.000192 -0.000501
vn -0.334286 0.426678 0.840356
vn -0.334285 0.213317 0.918014
vn -0.334208 -0.213416 0.918019
vn -0.334128 -0.426786 0.840365
vn -0.334128 0.867114 0.369421
vn -0.334207 0.753579 0.566060
vn -0.333813 0.901801 -0.274451
vn -0.333931 0.941226 -0.050836
vn -0.333482 0.514499 -0.789987
vn -0.333588 0.688440 -0.644026
vn -0.333289 -0.113592 -0.935957
vn -0.333334 0.113485 -0.935954
vn -0.333333 -0.688551 -0.644039
vn -0.333290 -0.514608 -0.789998
vn -0.333587 -0.941348 -0.050838
vn -0.333481 -0.901921 -0.274460
vn -0.333929 -0.753697 0.566068
vn -0.333811 -0.867234 0.369426
vn -1.000000 -0.000176 -0.000515
vn -1.000000 -0.000184 -0.000507
vn -1.000000 -0.000184 -0.000505
vn -1.000000 -0.000196 -0.000507
vn -1.000000 -0.000190 -0.000512
vn -1.000000 -0.000181 -0.000502
vn -1.000000 -0.000176 -0.000494
vn -1.000000 -0.000183 -0.000493
vn -1.000000 -0.000184 -0.000502
vn -1.000000 -0.000184 -0.000514
vn -0.997682 0.000000 0.068053
vn -0.997682 0.000000 0.068053
vn -0.997682 0.000000 0.068053
vn -0.997682 0.000000 0.068053
vn 0.445470 0.006216 -0.895275
vn 0.309694 0.002118 -0.950834
vn 0.445573 0.003108 -0.895240
vn 0.163922 0.000000 -0.986473
vn -0.000066 1.000000 -0.000166
vn -0.000099 1.000000 -0.000403
vn -0.000066 1.000000 -0.000269
vn 0.000000 1.000000 -0.000309
vn -0.000000 -1.000000 0.000622
vn 0.000200 -1.000000 0.000813
vn 0.000133 -1.000000 0.000542
vn 0.000133 -1.000000 0.000335
vn -0.964807 0.000000 0.262960
vn -0.993264 0.057458 0.100627
vn -0.964838 -0.000912 0.262843
vn -0.995907 -0.078274 0.045195
vn -0.000000 1.000000 -0.000000
vn -0.000000 1.000000 -0.000000
vn 0.017685 0.000000 -0.999844
vn 0.017685 0.000000 -0.999844
vn 0.000000 -1.000000 0.000000
vn 0.000000 -1.000000 0.000000
vn -0.248593 0.000000 0.968608
vn -0.248593 0.000000 0.968608
vn -0.248593 0.000000 0.968608
vn -0.248593 0.000000 0.968608
vn -0.997682 -0.058935 -0.034026
vn -0.997682 -0.058935 -0.034026
vn -0.997682 -0.058935 -0.034026
vn -0.997682 -0.058935 -0.034026
vn 0.445665 0.778374 0.442173
vn 0.309696 0.824510 0.473573
vn 0.445576 0.776862 0.444913
vn 0.163854 0.854319 0.493245
vn 0.000133 -0.500289 0.865859
vn 0.000200 -0.500703 0.865619
vn 0.000133 -0.500468 0.865755
vn -0.000000 -0.500538 0.865715
vn 0.000000 0.500271 -0.865869
vn -0.000101 0.500354 -0.865821
vn -0.000067 0.500236 -0.865889
vn -0.000067 0.500145 -0.865941
vn -0.994248 -0.000394 -0.107103
vn -0.964839 -0.228085 -0.130626
vn -0.964807 -0.227727 -0.131480
vn 0.000000 -0.499999 0.866026
vn 0.000001 -0.499999 0.866026
vn 0.017685 0.865889 0.499924
vn 0.017685 0.865889 0.499924
vn -0.000001 0.499999 -0.866026
vn -0.000000 0.499999 -0.866026
vn -0.248593 -0.838838 -0.484306
vn -0.248593 -0.838838 -0.484306
vn -0.248593 -0.838838 -0.484306
vn -0.248593 -0.838838 -0.484307
vn -0.997682 0.058935 -0.034027
vn -0.997682 0.058935 -0.034027
vn -0.997682 0.058935 -0.034027
vn -0.997682 0.058935 -0.034027
vn 0.446057 -0.775115 0.447470
vn 0.310040 -0.823356 0.475353
vn 0.446057 -0.775104 0.447489
vn 0.164060 -0.854289 0.493228
vn -0.000067 -0.500145 -0.865941
vn -0.000101 -0.500352 -0.865822
vn -0.000067 -0.500235 -0.865890
vn 0.000000 -0.500269 -0.865870
vn -0.000000 0.499733 0.866179
vn -0.000098 0.499652 0.866226
vn -0.000065 0.499768 0.866159
vn -0.000066 0.499857 0.866108
vn -0.964999 0.227119 -0.131126
vn -0.964999 0.227121 -0.131122
vn 0.000000 -0.500000 -0.866025
vn 0.000001 -0.500002 -0.866025
vn 0.017684 -0.865889 0.499924
vn 0.017684 -0.865888 0.499925
vn -0.000001 0.500002 0.866025
vn -0.000000 0.500000 0.866025
vn -0.248594 0.838837 -0.484307
vn -0.248594 0.838838 -0.484306
vn -0.248594 0.838838 -0.484306
vn -0.248594 0.838838 -0.484306
vn 1.000000 0.000000 -0.000012
vn 1.000000 0.000000 -0.000012
vn 1.000000 0.000000 -0.000012
usemtl roket:_roketMaterial__27
f 1/1/1 2/2/2 4/4/3
f 4/4/3 2/2/2 3/3/4
f 5/5/5 1/1/1 6/6/6
f 6/6/6 1/1/1 4/4/3
f 7/7/7 5/5/5 8/8/8
f 8/8/8 5/5/5 6/6/6
f 9/9/9 7/10/7 10/12/10
f 10/12/10 7/10/7 8/11/8
f 11/13/11 9/9/9 12/14/12
f 12/14/12 9/9/9 10/12/10
f 11/13/11 12/14/12 13/15/13
f 13/15/13 12/14/12 14/16/14
f 15/17/15 16/18/16 14/16/14
f 14/16/14 16/18/16 13/15/13
f 16/18/16 15/17/15 17/19/17
f 17/19/17 15/17/15 18/20/18
f 17/19/17 18/20/18 2/2/2
f 2/2/2 18/20/18 3/3/4
f 19/21/19 20/22/20 22/24/21
f 22/24/21 20/22/20 21/23/22
f 24/26/23 20/22/20 23/25/24
f 23/25/24 20/22/20 19/21/19
f 26/28/25 24/26/23 25/27/26
f 25/27/26 24/26/23 23/25/24
f 28/30/27 26/31/25 27/29/28
f 27/29/28 26/31/25 25/32/26
f 29/33/29 30/34/30 27/29/28
f 27/29/28 30/34/30 28/30/27
f 31/35/31 32/36/32 29/33/29
f 29/33/29 32/36/32 30/34/30
f 33/37/33 34/38/34 31/35/31
f 31/35/31 34/38/34 32/36/32
f 35/39/35 36/40/36 33/37/33
f 33/37/33 36/40/36 34/38/34
f 22/24/21 21/23/22 35/39/35
f 35/39/35 21/23/22 36/40/36
f 20/22/20 37/41/37 21/23/22
f 21/23/22 37/41/37 38/42/38
f 24/26/23 39/43/39 20/22/20
f 20/22/20 39/43/39 37/41/37
f 26/28/25 40/44/40 24/26/23
f 24/26/23 40/44/40 39/43/39
f 28/30/27 41/45/41 26/31/25
f 26/31/25 41/45/41 40/46/40
f 30/34/30 42/47/42 28/30/27
f 28/30/27 42/47/42 41/45/41
f 32/36/32 43/48/43 30/34/30
f 30/34/30 43/48/43 42/47/42
f 34/38/34 44/49/44 32/36/32
f 32/36/32 44/49/44 43/48/43
f 36/40/36 45/50/45 34/38/34
f 34/38/34 45/50/45 44/49/44
f 21/23/22 38/42/38 36/40/36
f 36/40/36 38/42/38 45/50/45
f 37/41/37 46/51/46 38/42/38
f 38/42/38 46/51/46 47/52/47
f 39/43/39 48/53/48 37/41/37
f 37/41/37 48/53/48 46/51/46
f 40/44/40 49/54/49 39/43/39
f 39/43/39 49/54/49 48/53/48
f 41/45/41 50/55/50 40/46/40
f 40/46/40 50/55/50 49/56/49
f 42/47/42 51/57/51 41/45/41
f 41/45/41 51/57/51 50/55/50
f 52/58/52 51/57/51 43/48/43
f 43/48/43 51/57/51 42/47/42
f 53/59/53 52/58/52 44/49/44
f 44/49/44 52/58/52 43/48/43
f 54/60/54 53/59/53 45/50/45
f 45/50/45 53/59/53 44/49/44
f 47/52/47 54/60/54 38/42/38
f 38/42/38 54/60/54 45/50/45
f 55/61/55 56/62/56 46/51/46
f 46/51/46 56/62/56 47/52/47
f 57/63/57 55/61/55 48/53/48
f 55/61/55 46/51/46 48/53/48
f 58/64/58 57/63/57 49/54/49
f 57/63/57 48/53/48 49/54/49
f 59/65/59 58/66/58 50/55/50
f 58/66/58 49/56/49 50/55/50
f 60/67/60 59/65/59 51/57/51
f 59/65/59 50/55/50 51/57/51
f 61/68/61 60/67/60 52/58/52
f 60/67/60 51/57/51 52/58/52
f 62/69/62 61/68/61 53/59/53
f 61/68/61 52/58/52 53/59/53
f 63/70/63 62/69/62 54/60/54
f 62/69/62 53/59/53 54/60/54
f 56/62/56 63/70/63 47/52/47
f 63/70/63 54/60/54 47/52/47
f 57/63/64 61/71/65 55/61/66
f 56/62/67 55/61/66 61/71/65
f 58/64/68 59/72/69 57/63/64
f 57/63/64 59/72/69 61/71/65
f 59/72/69 60/73/70 61/71/65
f 61/71/65 62/74/71 56/62/67
f 56/62/67 62/74/71 63/75/72
f 64/76/73 65/77/74 22/24/21
f 22/24/21 65/77/74 19/21/19
f 65/77/74 66/78/75 19/21/19
f 19/21/19 66/78/75 23/25/24
f 66/80/75 67/81/76 23/79/24
f 23/79/24 67/81/76 25/32/26
f 67/81/76 68/82/77 25/32/26
f 25/32/26 68/82/77 27/29/28
f 27/29/28 68/82/77 29/33/29
f 29/33/29 68/82/77 69/83/78
f 29/33/29 69/83/78 31/35/31
f 31/35/31 69/83/78 70/84/79
f 31/35/31 70/84/79 33/37/33
f 33/37/33 70/84/79 71/85/80
f 33/37/33 71/85/80 35/39/35
f 35/39/35 71/85/80 72/86/81
f 35/39/35 72/86/81 22/24/21
f 22/24/21 72/86/81 64/76/73
f 64/76/82 2/2/83 65/77/84
f 65/77/84 2/2/83 1/1/85
f 72/86/86 17/19/87 64/76/82
f 64/76/82 17/19/87 2/2/83
f 71/85/88 16/18/89 72/86/86
f 72/86/86 16/18/89 17/19/87
f 70/84/90 13/15/91 71/85/88
f 71/85/88 13/15/91 16/18/89
f 69/83/92 11/13/93 70/84/90
f 70/84/90 11/13/93 13/15/91
f 68/82/94 9/9/95 69/83/92
f 69/83/92 9/9/95 11/13/93
f 67/81/96 7/10/97 68/82/94
f 68/82/94 7/10/97 9/9/95
f 66/80/98 5/87/99 67/81/96
f 67/81/96 5/87/99 7/10/97
f 65/77/84 1/1/85 66/78/98
f 66/78/98 1/1/85 5/5/99
f 3/3/100 73/88/101 4/4/102
f 4/4/102 73/88/101 74/89/103
f 18/20/104 75/90/105 3/3/100
f 3/3/100 75/90/105 73/88/101
f 15/17/106 76/91/107 18/20/104
f 18/20/104 76/91/107 75/90/105
f 14/16/108 77/92/109 15/17/106
f 15/17/106 77/92/109 76/91/107
f 12/14/110 78/93/111 14/16/108
f 14/16/108 78/93/111 77/92/109
f 10/12/112 79/94/113 12/14/110
f 12/14/110 79/94/113 78/93/111
f 8/11/114 80/95/115 10/12/112
f 10/12/112 80/95/115 79/94/113
f 6/96/116 81/97/117 8/11/114
f 8/11/114 81/97/117 80/95/115
f 4/4/102 74/89/103 6/6/116
f 6/6/116 74/89/103 81/98/117
f 73/88/118 82/99/119 74/89/120
f 74/89/120 82/99/119 83/100/121
f 75/90/122 84/101/123 73/88/118
f 73/88/118 84/101/123 82/99/119
f 76/91/124 85/102/125 75/90/122
f 75/90/122 85/102/125 84/101/123
f 77/92/126 86/103/127 76/91/124
f 76/91/124 86/103/127 85/102/125
f 78/93/128 87/104/129 77/92/126
f 77/92/126 87/104/129 86/103/127
f 79/94/130 88/105/131 78/93/128
f 78/93/128 88/105/131 87/104/129
f 80/95/132 89/106/133 79/94/130
f 79/94/130 89/106/133 88/105/131
f 81/97/134 90/107/135 80/95/132
f 80/95/132 90/107/135 89/106/133
f 74/89/120 83/100/121 81/98/134
f 81/98/134 83/100/121 90/108/135
f 83/109/136 82/99/137 91/110/138
f 82/99/137 84/101/139 91/110/138
f 84/101/139 85/102/140 91/110/138
f 85/102/140 86/103/141 91/110/138
f 86/103/141 87/104/142 91/110/138
f 87/104/142 88/105/143 91/110/138
f 88/105/143 89/106/144 91/110/138
f 89/106/144 90/107/145 91/110/138
f 90/108/145 83/100/136 91/111/138
f 92/112/146 93/113/147 95/115/148
f 95/115/148 93/113/147 94/114/149
f 96/116/150 97/118/151 99/117/152
f 99/117/152 97/118/151 98/119/153
f 100/121/154 101/122/155 98/120/156
f 98/120/156 101/122/155 99/123/157
f 96/116/158 102/125/159 97/124/160
f 97/124/160 102/125/159 103/126/161
f 103/127/162 102/128/163 100/130/164
f 100/130/164 102/128/163 101/129/165
f 98/132/156 92/112/166 100/131/154
f 100/131/154 92/112/166 95/115/167
f 97/133/151 93/113/168 98/134/153
f 98/134/153 93/113/168 92/112/169
f 94/114/170 93/113/171 103/135/161
f 103/135/161 93/113/171 97/136/160
f 100/137/172 95/115/173 103/138/174
f 103/138/174 95/115/173 94/114/175
f 104/139/176 105/140/177 107/142/178
f 107/142/178 105/140/177 106/141/179
f 99/143/180 108/144/181 110/146/182
f 110/146/182 108/144/181 109/145/183
f 111/148/184 112/149/185 109/147/186
f 109/147/186 112/149/185 110/150/187
f 99/152/188 101/153/189 108/151/190
f 108/151/190 101/153/189 113/154/191
f 101/156/165 112/157/192 113/155/193
f 113/155/193 112/157/192 111/158/194
f 109/160/186 104/161/195 111/159/184
f 111/159/184 104/161/195 107/162/196
f 108/163/181 105/164/197 109/166/183
f 109/166/183 105/164/197 104/165/198
f 106/168/199 105/169/200 113/167/191
f 113/167/191 105/169/200 108/170/190
f 111/171/201 107/172/202 113/174/203
f 113/174/203 107/172/202 106/173/204
f 114/175/205 115/176/206 117/178/207
f 117/178/207 115/176/206 116/177/208
f 110/179/209 118/180/210 96/182/211
f 96/182/211 118/180/210 119/181/212
f 120/184/213 102/185/214 119/183/215
f 119/183/215 102/185/214 96/116/216
f 110/187/217 112/188/218 118/186/219
f 118/186/219 112/188/218 121/189/220
f 121/190/221 112/191/192 120/193/222
f 120/193/222 112/191/192 102/192/163
f 119/195/215 114/196/223 120/194/213
f 120/194/213 114/196/223 117/197/224
f 118/198/210 115/199/225 119/201/212
f 119/201/212 115/199/225 114/200/226
f 116/203/227 115/204/228 121/202/220
f 121/202/220 115/204/228 118/205/219
f 120/206/229 117/207/230 121/209/231
f 121/209/231 117/207/230 116/208/232
f 99/117/233 110/210/234 96/211/235
f 102/212/163 112/213/192 101/214/165
